ply
format ascii 1.0
element vertex 33
property float x
property float y
property float z
end_header
5.560710 0.723515 -1.009170
-0.543707 2.831303 -0.142211
-6.184577 2.652648 -1.001018
-7.467930 2.464245 -0.955651
-4.103049 2.513747 -0.662346
-5.111679 4.779278 1.881895
-6.152638 5.107507 0.588631
-6.536289 5.300032 0.155987
-5.895530 2.921961 1.029736
-4.213849 4.930585 -0.000947
-3.240621 0.858410 0.385630
-2.763611 1.421523 -0.533300
-2.635095 1.201683 -0.563137
-2.898779 2.263468 -0.777076
-2.735933 1.360629 -0.626703
-2.764620 1.515589 -0.671523
-2.978232 1.121861 -0.676945
-2.879952 1.341635 -0.741067
-2.822623 1.477659 -0.765762
-2.879094 1.621455 -0.869247
-2.931694 1.906907 -0.938581
-2.850197 1.163235 -0.812618
-2.880683 1.341461 -0.860846
-2.902962 1.480294 -0.895541
-2.766674 1.964732 -0.944373
-2.862820 1.083633 -0.838746
-2.877537 1.273562 -0.917907
-2.885937 1.068703 -0.921626
-2.964509 2.267585 -1.104458
-2.837315 1.141803 -0.938538
-2.901507 2.129713 -1.104064
-2.799821 1.276152 -0.970840
-2.745471 1.357228 -1.002689
