ply
format ascii 1.0
element vertex 45
property float x
property float y
property float z
end_header
-46.377761 -9.860252 34.742846
-1.604461 3.230229 1.679247
-24.136573 -6.291242 17.250214
350.015536 123.371433 -200.563687
-0.406895 2.736511 0.892870
-2.113207 3.791052 2.076207
-2.009518 3.794678 2.093298
-0.869336 3.678482 1.204608
-1.256348 3.849320 1.473065
-0.950258 3.841538 1.420611
-0.793302 3.732672 1.365889
-1.437722 3.951672 1.712058
-9.329439 5.211571 2.271624
-8.026007 3.567876 1.152309
-7.703245 5.048070 1.118086
-3.511596 1.813180 -0.023351
-5.428205 0.916273 0.049049
-5.455161 0.942461 0.003676
-7.840959 4.955290 1.011842
-1.334822 3.492896 0.497253
-13.515121 0.934935 -0.261487
-6.105593 5.030355 0.250156
-4.446618 1.454095 -0.688042
121.386856 -10.076733 -0.323025
-3.722691 3.557638 -0.222899
-3.082441 1.754506 1.558444
-3.292006 1.346724 1.447729
-0.461102 3.125025 1.394131
-3.446080 1.295897 1.333121
-3.134099 1.494503 1.389126
-3.578958 1.533512 2.011804
-3.411883 1.713965 2.369271
-3.679793 4.997067 2.065385
-2.264352 4.420127 1.635712
-0.185095 3.024389 1.292874
-3.505751 2.944428 1.114062
-2.482944 2.067605 0.704150
0.129045 3.423181 1.113234
-3.127514 2.042531 0.390226
0.105851 3.240065 0.937310
-8.410087 3.303967 0.563683
0.307483 3.345225 1.270532
-0.674073 3.198195 1.733450
-2.545486 2.099875 -0.664627
-7.085922 4.746585 0.865661
