ply
format ascii 1.0
element vertex 14
property float x
property float y
property float z
end_header
-5.047455 0.528853 -1.628304
-5.897863 0.416913 -1.718882
-52.982321 -22.882375 0.838981
-28.801600 -11.086309 0.215329
-4.147479 1.374032 -1.282903
-3.953707 1.252010 -1.315348
-1.650588 2.311903 -0.078070
0.470277 3.256136 0.287997
-2.616006 2.018812 -0.805252
-2.327833 1.266537 -1.018245
-0.358015 -0.591847 0.244146
-2.031660 0.394270 -0.938868
-2.907083 1.214118 -0.683542
-1.777637 0.608766 -0.659975
