ply
format ascii 1.0
element vertex 20
property float x
property float y
property float z
end_header
-14.419371 7.520908 -2.493815
-0.513644 3.130378 -0.168943
810.051026 -314.828280 30.614939
48.812536 -19.468028 2.864379
15.341545 -6.533042 1.858152
-22.244402 0.281115 -1.304902
9.353574 -8.430679 0.557223
-2.745996 2.010955 -0.815464
-2.675109 2.206050 -0.802457
-0.529362 3.126577 -0.148298
-0.529362 3.126577 -0.148298
-3.192320 1.933717 -0.815581
-2.762303 2.120618 -0.818993
-2.633423 1.886284 -0.891797
-6.874508 5.759458 -0.419652
-3.984818 2.892848 -0.507248
-3.813418 2.897822 -0.466495
-3.325112 2.519149 -0.539743
-0.557566 3.143204 -0.132207
-13.269323 9.099900 -0.409552
