ply
format ascii 1.0
element vertex 29
property float x
property float y
property float z
end_header
-7.842066 2.270320 -1.587665
-5.942147 2.489694 -1.422426
-8.735484 2.384700 -1.200789
-10.915063 2.917958 -2.169755
-5.179266 3.917854 -0.101976
-4.181563 2.573920 -0.868078
-2.333984 2.755179 -0.613298
-4.349343 2.657946 -0.618314
-4.448870 4.486553 -0.015321
-2.542969 3.673811 -0.287822
-2.756377 1.544003 -0.671397
-2.428428 1.427297 -0.739618
-2.846466 1.296866 -0.705967
-2.883542 1.524837 -0.859291
-2.191662 0.861226 -0.605700
-3.241574 1.453069 -0.966861
-1.811898 0.901266 -0.796658
-2.522464 1.261143 -0.943479
-0.536239 2.827262 -0.120094
-2.942231 1.139681 -0.718078
-2.877717 1.239242 -0.798355
-2.634198 1.153021 -0.810011
-2.606634 1.945344 -1.056803
-3.476177 1.597270 -0.993053
-2.853179 1.261470 -0.870878
-3.922098 2.293982 -1.200810
-4.650802 2.733016 -1.274541
-1.975504 0.962840 -0.770650
-2.850743 1.944928 -0.949812
