ply
format ascii 1.0
element vertex 44
property float x
property float y
property float z
end_header
-20.763531 1.901478 -0.630131
-7.102881 3.894686 0.630554
-4.009017 2.947249 0.172911
-3.113509 2.500112 -0.152390
-4.397718 4.308606 1.380483
-5.205124 3.283676 2.399344
-13.214334 4.932948 0.625066
-3.395869 1.571335 1.085422
-4.144257 1.138255 0.919277
-1.895462 4.231064 0.510631
-3.751141 4.476259 0.383857
-6.289788 0.902590 -0.105886
-1.534607 3.213332 0.238565
-5.633880 1.019283 0.229954
-10.761607 5.744610 -0.190679
-5.549635 0.959451 0.249639
-16.705232 3.566089 3.799248
-16.705232 3.566089 3.799248
-4.357370 4.237657 1.079630
-3.861929 3.491671 0.000262
-3.934956 3.873903 -0.242451
-5.454783 4.144879 -0.293887
-2.926936 3.973264 1.317856
-10.100098 5.325146 -0.021770
-3.305276 3.906360 0.025947
-4.100036 4.223712 -0.205604
-4.100036 4.223712 -0.205604
-4.241864 4.339999 0.047085
-22.818534 5.978247 1.994271
-7.621769 4.787078 2.024688
-6.448847 4.190338 1.191284
-6.156246 0.864644 -0.411351
3.470266 -4.704692 -5.588356
-1.513711 0.035552 -0.621700
17.679544 -7.777180 -6.659773
-6.023485 0.114272 0.972435
-6.192946 2.692369 0.755328
-2.046545 2.227872 -0.232295
-3.043623 2.926824 0.062834
-1.250618 1.595584 -0.709226
-20.538016 8.381678 12.711180
-11.213452 8.209272 1.503844
-1.708563 1.094447 -0.586124
-1.114508 0.603532 -0.317221
