ply
format ascii 1.0
element vertex 19
property float x
property float y
property float z
end_header
-15.219916 8.854168 -1.100528
-5.034727 3.735037 -0.344539
-6.292857 2.814451 -0.917638
-5.943258 2.886124 -0.561455
-12.498076 5.823306 -1.004921
-5.769558 4.564331 0.061639
-2.745996 2.010955 -0.815464
-2.675109 2.206050 -0.802457
-2.614566 2.007275 -0.904239
-0.529362 3.126577 -0.148298
-0.529362 3.126577 -0.148298
-1.753958 1.321134 -0.715209
-3.192320 1.933717 -0.815581
-2.762303 2.120618 -0.818993
-2.633423 1.886284 -0.891797
-7.610818 6.029942 -0.263414
-16.172043 12.680164 -1.748540
-7.123853 4.690254 -0.373051
-0.573466 3.168941 -0.129079
