ply
format ascii 1.0
element vertex 49
property float x
property float y
property float z
end_header
-2.527245 3.883468 2.478143
-2.261134 3.893645 2.144192
-1.363315 3.732470 1.299357
-4.438698 3.122649 2.379804
-4.597990 2.706779 1.802761
-5.312703 5.732015 1.900006
-3.538892 4.861636 1.360742
-31.948253 13.581972 2.860785
-2.217261 4.270801 0.957607
-12.939054 3.735832 -0.186298
-7.465606 2.568009 -0.560451
-8.856093 2.565631 -0.845121
-8.210991 2.614977 -0.784937
-8.158279 2.273205 -1.037405
-6.832509 6.034210 4.488047
-5.100258 2.867845 2.196268
-5.715769 2.235855 2.020550
-4.860626 2.753142 1.938385
-4.807359 2.969681 1.746634
-5.160077 2.991917 1.841765
-8.602883 2.197654 2.177773
-4.833857 2.456517 1.545807
-460.981801 232.344699 154.479834
-6.428426 2.832164 1.037265
-5.181699 3.165090 1.200789
-35.199781 20.749899 12.550880
-6.671753 2.618913 0.598027
7.777333 -6.690186 -10.061763
20.818816 -25.110582 -23.441530
-16.445548 19.588290 19.365632
11.841112 -14.397570 -14.255933
-10.357199 11.747564 11.058410
12.435537 -13.794931 -13.646296
6.173727 -7.291846 -7.679989
-25.663652 33.672363 29.151787
6.276424 -6.806001 -6.557119
3.047504 -4.552094 -4.619962
19.327651 -12.576864 -13.091095
4.957339 -7.765214 -6.299772
2.473281 -3.525583 -3.528690
9.912814 -17.453080 -12.690175
2.496168 -3.511278 -3.014264
5.506984 -5.301944 -4.396765
9.427341 -7.003989 -6.072408
2.508722 -3.066499 -2.921068
-5.335621 4.118753 1.556212
4.033171 -4.450088 -3.760039
9.260188 -11.984625 -6.757837
-9.026852 5.008923 0.973068
