ply
format ascii 1.0
element vertex 19
property float x
property float y
property float z
end_header
-2.735576 1.958525 -0.918296
-4.260786 0.972350 -1.355728
-4.933460 0.383703 -0.945508
-5.203114 0.696853 -1.633715
-4.147479 1.374032 -1.282903
-2.662891 1.846136 -0.937175
-2.722566 1.996967 -0.825714
-1.660972 2.320364 -0.070660
0.470277 3.256136 0.287997
-2.616006 2.018812 -0.805252
-2.512919 1.947818 -0.862278
-2.556639 1.278070 -1.143394
-0.358015 -0.591847 0.244146
-8.395351 3.444797 1.732112
-1.903375 0.634644 -0.659121
-2.263748 1.167494 -1.004306
-0.177691 -0.875793 0.273509
-1.610289 0.604768 -0.665492
0.388408 -0.013049 -0.514110
