ply
format ascii 1.0
element vertex 47
property float x
property float y
property float z
end_header
-11.518339 -0.423945 5.423465
-1.719940 3.141893 0.933877
-1.511635 3.068854 1.003348
-1.552003 3.059615 0.717021
-8.909140 -0.053432 -0.287033
-9.111824 -0.281149 -0.452468
-8.687893 -0.264387 -0.519525
-4.362904 1.301061 1.775797
-3.291502 1.844769 1.666387
-1.618158 3.600994 0.679981
-3.111146 2.245251 1.718248
-1.774165 3.370523 0.623804
-1.156627 3.454636 0.908199
-3.405933 1.518421 1.506404
-4.222157 1.257409 1.533231
-4.262611 1.255205 1.300586
-4.151724 1.020574 1.167524
-1.450616 3.257780 0.548650
-3.685191 1.426456 1.213357
-3.884302 1.129799 1.086796
-3.059487 2.161521 1.104671
-1.988326 2.885843 1.002905
-2.911389 3.077663 0.751340
-2.122576 2.879230 0.351168
-1.937843 4.227455 0.607266
-2.809777 1.914215 0.662545
-1.926818 2.975402 -0.095590
-3.073137 4.033578 0.435458
-1.165282 -0.336511 -0.201392
-2.361994 -0.583193 0.257077
6.490248 -4.970078 -5.993525
-1.236374 0.036800 -0.093571
-1.220528 0.069477 -0.087748
-1.538760 0.058110 -0.055814
-1.636169 -0.017381 -0.040037
-2.094493 -0.048279 0.031342
9.747938 -11.265016 -9.148679
9.925057 -8.289429 -6.890514
-3.460429 -0.524370 0.153940
4.841189 -4.662592 -3.945372
-2.287700 1.784678 0.074633
-2.636768 0.407240 -0.408857
-5.235152 2.890987 0.549292
-1.166959 0.913570 -0.480595
-2.440849 0.145576 -0.718283
-2.637008 0.333594 -0.665250
-2.359373 1.092827 -0.693249
