ply
format ascii 1.0
element vertex 19
property float x
property float y
property float z
end_header
-4.019604 3.347417 1.008852
-1.675753 3.805470 1.291596
-4.791649 3.630244 0.316609
-2.722243 5.278402 0.486284
-2.595900 5.280087 0.489309
-2.580377 5.319166 0.466719
-4.490421 2.841734 1.726969
-4.859423 3.519790 -0.036044
-4.365482 3.717868 0.061329
-4.972241 3.128230 -0.311375
-5.039998 3.090813 -0.345370
-5.029799 3.109602 -0.419187
-5.255575 2.823628 -0.624430
-5.259678 2.220874 1.246860
33.071345 -51.015033 -33.440671
13.832163 -23.516468 -9.190773
-3.361792 1.597052 -0.924041
-34.149293 65.290275 5.350780
-35.258228 68.420674 4.774011
