ply
format ascii 1.0
element vertex 40
property float x
property float y
property float z
end_header
15.444859 -16.256353 -2.315603
-17.157763 11.280693 -0.536818
34.805423 -23.802029 -15.190249
-6.508603 5.599311 2.459060
-2.808168 1.532434 -0.441381
-2.762718 1.490439 -0.533789
-2.739974 1.266944 -0.535675
-2.723723 1.364178 -0.561835
-2.748241 1.553773 -0.648633
-2.692329 1.590372 -0.676399
-2.747906 1.557917 -0.686228
-5.098860 7.862245 -1.534965
-3.015071 1.350360 -0.687794
-2.778858 1.366525 -0.694458
-2.849973 1.501458 -0.745246
-2.865096 1.246123 -0.702418
-2.821578 1.331390 -0.745065
-2.933811 1.136930 -0.733742
-2.896479 1.552082 -0.826042
-2.863984 1.250469 -0.773684
-2.897752 1.112242 -0.769340
-3.223249 1.395218 -0.872396
-2.903593 1.454787 -0.844345
-2.870251 1.566222 -0.874840
-2.953491 1.090492 -0.820025
-2.886325 1.391333 -0.866964
-2.893049 1.516534 -0.890777
-2.684901 1.314613 -0.877326
-2.886850 1.427806 -0.903075
-2.894225 1.188560 -0.843256
-2.913830 1.529326 -0.946963
-3.004531 1.163642 -0.907350
-2.835330 1.218470 -0.875671
-3.007423 1.562252 -1.023482
-3.009372 0.690587 -0.863631
-2.538079 1.848067 -0.960542
-3.190710 1.635554 -1.092603
-1.526846 4.062631 -1.221422
-2.683577 2.799206 -1.182654
-2.795609 1.156252 -0.991286
