ply
format ascii 1.0
element vertex 21
property float x
property float y
property float z
end_header
-4.176793 4.219324 1.364233
-4.338480 4.231543 1.035410
-4.348299 4.222305 1.002604
-4.369150 4.232303 0.965509
-12.733280 4.135409 1.650365
-5.705720 0.700597 1.758198
-8.634284 3.432584 4.542912
-9.413162 3.495089 2.402850
-8.969834 3.759359 2.369226
-4.410893 4.358064 1.587626
-6.851675 3.189777 -0.439039
-6.802812 3.134979 -0.498014
-5.656048 3.976796 -0.289365
-4.357801 4.285808 1.568143
-3.760888 3.561241 0.420720
-3.751296 3.552363 0.372245
-9.145604 3.856597 2.465731
-3.741693 3.543473 0.324216
-9.190970 3.392130 2.244768
-3.831034 3.627701 -0.059135
-3.438624 4.501411 -0.256886
