ply
format ascii 1.0
element vertex 35
property float x
property float y
property float z
end_header
9.884771 -0.319520 -2.139511
11.470048 -2.377327 -2.062149
9.163987 -0.641965 -0.777920
10.004911 -1.315746 -1.342854
8.647456 0.053857 -0.483894
-8.916580 4.411904 2.068394
-6.441636 4.490403 0.265270
-4.750250 4.848840 0.111847
-4.279647 4.965052 0.084559
-9.045675 2.867997 0.016489
-4.476413 0.804503 0.060230
-0.521654 3.107409 -0.134461
-3.473378 -0.190508 -0.249257
-1.745152 3.678035 -0.563134
-4.785554 0.464347 -0.621520
-4.388567 5.789461 -1.197400
-2.798257 2.133497 -0.726284
-2.753773 2.159127 -0.725079
-2.843068 2.107379 -0.738368
-3.181861 1.835947 -0.786511
-2.849879 2.361449 -0.867354
-2.724904 2.047646 -0.904759
-4.177328 0.197804 -1.009949
-4.211911 0.156511 -1.015201
-2.769230 2.237515 -1.053039
-3.099478 1.723852 -1.066553
-2.476051 1.633761 -0.946273
-12.433375 4.856489 3.079265
-8.910550 4.413348 2.024983
-43.198398 17.721111 8.734990
38.876320 -24.566515 -9.879764
-6.381370 4.422900 0.269044
53.418491 -23.971312 -3.451359
2089.365117 -676.898393 1.195062
-55477.736975 18491.039813 60.407783
