ply
format ascii 1.0
element vertex 27
property float x
property float y
property float z
end_header
-5.942147 2.489694 -1.422426
-0.572382 2.860977 -0.110888
-11.437259 2.226887 -1.522764
-4.577888 2.888410 -0.947592
-3.121626 3.264038 -0.136835
-0.541656 2.864903 -0.109268
-3.897060 2.684195 -0.567218
-0.540986 2.859435 -0.109279
-2.542969 3.673811 -0.287822
-2.542969 3.673811 -0.287822
-2.428428 1.427297 -0.739618
-2.846466 1.296866 -0.705967
-2.883542 1.524837 -0.859291
-3.058244 1.039812 -0.883920
-0.536239 2.827262 -0.120094
-0.536239 2.827262 -0.120094
-2.439541 1.398905 -0.666413
-3.102707 2.334646 -0.904397
-2.942231 1.139681 -0.718078
-2.546331 1.509721 -0.833707
-2.877717 1.239242 -0.798355
-2.897246 1.449236 -0.862171
-2.853179 1.261470 -0.870878
-0.196917 0.571528 -0.320574
-0.242246 0.927188 -0.332186
-2.751720 2.040768 -0.979446
-3.065260 1.692265 -0.744930
