ply
format ascii 1.0
element vertex 43
property float x
property float y
property float z
end_header
-5.976471 1.906415 0.517355
-3.113509 2.500112 -0.152390
-9.056594 3.685180 2.254969
-7.433675 2.930465 -0.275547
-4.223535 3.084103 1.705012
-11.523800 2.996025 0.041120
-4.397718 4.308606 1.380483
-44.381903 6.984867 10.933510
-4.291480 1.242787 0.399516
-2.716813 2.661516 -0.191319
-7.816681 4.741264 0.955619
-2.022115 4.183322 0.072583
-6.205925 4.445440 1.363568
-4.052571 1.870179 0.040585
-9.101966 3.782246 3.263333
-3.608341 1.434353 0.621568
-1.599976 3.498160 0.318370
-2.720013 4.054847 0.409346
-16.943799 4.321624 1.871042
-4.462957 4.320582 1.279841
-5.131643 3.357072 -0.082071
-3.848140 3.870767 0.832123
-3.870889 3.746033 -0.064219
-4.027426 4.059427 -0.153581
-41.977521 11.844523 5.005159
-3.604911 4.497253 0.512623
-4.621942 4.343456 0.595929
-4.752658 0.975054 1.052882
-4.158056 4.141558 0.091737
-5.491636 4.621843 -0.415663
-3.806050 2.097248 -0.252127
-9.146163 3.487881 2.218752
-2.323108 1.678716 -0.520184
-2.699276 1.411252 -0.426588
-4.356097 4.283409 1.493119
8.847367 -5.038008 -5.551546
-1.250618 1.595584 -0.709226
-3.480978 1.335884 2.225997
-1.278518 0.691441 -0.748512
-6.978576 5.299050 0.339780
-9.161707 3.743554 2.279273
-1.203851 1.440639 -0.695399
-4.097532 -0.271158 -0.416647
