ply
format ascii 1.0
element vertex 35
property float x
property float y
property float z
end_header
-8.061454 3.245161 1.987178
-8.071002 3.459041 1.899275
-9.070862 4.972100 2.204367
-8.441730 5.128252 2.083378
-7.996002 3.461702 1.573073
-8.133904 3.560218 1.196952
-8.886891 3.946997 1.014359
-8.094523 5.101554 1.047294
-7.900773 6.372672 0.669671
-5.014856 1.357872 -0.402016
-4.181184 1.092159 -1.155498
-6.945244 5.783762 -0.677351
-4.293668 1.327335 -1.243222
-4.388684 1.495268 -1.454905
-4.174641 1.300045 -1.452629
-6.300811 3.420670 1.553828
-3.072471 1.931987 -0.046564
-0.856654 -1.274566 1.026834
-1.871597 0.507363 2.012852
-1.051084 -1.232590 0.985603
-1.074781 -1.177009 1.000978
-1.372559 -0.954486 1.059357
-1.491106 -0.824593 0.931250
-2.513795 0.898290 1.876794
-6.096144 5.629772 2.092389
-8.168739 4.969219 2.080113
-7.891389 3.384973 1.575023
-8.786514 4.847508 2.082321
-7.893070 3.433411 1.202211
-7.348336 4.744338 1.184231
-5.844415 5.520189 0.550473
-5.810653 5.055992 0.296831
-3.302493 4.215005 -0.708709
-2.974905 4.261821 -0.736487
-2.247325 1.172055 -0.969688
